<svg width="31" height="27" viewBox="0 0 31 27" fill="none" xmlns="http://www.w3.org/2000/svg">
<path d="M28.625 13.8208C28.625 5.81458 22.4125 0.375 15.5 0.375C8.66041 0.375 2.37499 5.69792 2.37499 13.9083C1.49999 14.4042 0.916656 15.3375 0.916656 16.4167V19.3333C0.916656 20.9375 2.22916 22.25 3.83332 22.25H5.29166V13.3542C5.29166 7.71042 9.85624 3.14583 15.5 3.14583C21.1437 3.14583 25.7083 7.71042 25.7083 13.3542V23.7083H14.0417V26.625H25.7083C27.3125 26.625 28.625 25.3125 28.625 23.7083V21.9292C29.4854 21.4771 30.0833 20.5875 30.0833 19.5375V16.1833C30.0833 15.1625 29.4854 14.2729 28.625 13.8208Z" fill="#5686E1"/>
<path d="M11.125 16.4167C11.9304 16.4167 12.5833 15.7637 12.5833 14.9583C12.5833 14.1529 11.9304 13.5 11.125 13.5C10.3196 13.5 9.66666 14.1529 9.66666 14.9583C9.66666 15.7637 10.3196 16.4167 11.125 16.4167Z" fill="#5686E1"/>
<path d="M19.875 16.4167C20.6804 16.4167 21.3333 15.7637 21.3333 14.9583C21.3333 14.1529 20.6804 13.5 19.875 13.5C19.0696 13.5 18.4167 14.1529 18.4167 14.9583C18.4167 15.7637 19.0696 16.4167 19.875 16.4167Z" fill="#5686E1"/>
<path d="M24.25 12.0854C23.55 7.92917 19.9333 4.75 15.5729 4.75C11.1542 4.75 6.4 8.41042 6.77916 14.1562C10.3812 12.6833 13.0937 9.475 13.8667 5.56667C15.7771 9.40208 19.7 12.0417 24.25 12.0854Z" fill="#5686E1"/>
</svg>
