<svg width="36" height="35" viewBox="0 0 36 35" fill="none" xmlns="http://www.w3.org/2000/svg">
<path d="M18.48 0C8.82001 0 0.980011 7.84 0.980011 17.5C0.980011 27.16 8.82001 35 18.48 35C28.14 35 35.98 27.16 35.98 17.5C35.98 7.84 28.14 0 18.48 0V0ZM24.7975 11.095C26.67 11.095 28.175 12.6 28.175 14.4725C28.175 16.345 26.67 17.85 24.7975 17.85C22.925 17.85 21.42 16.345 21.42 14.4725C21.4025 12.6 22.925 11.095 24.7975 11.095V11.095ZM14.2975 8.33C16.5725 8.33 18.4275 10.185 18.4275 12.46C18.4275 14.735 16.5725 16.59 14.2975 16.59C12.0225 16.59 10.1675 14.735 10.1675 12.46C10.1675 10.1675 12.005 8.33 14.2975 8.33ZM14.2975 24.3075V30.87C10.0975 29.5575 6.77251 26.32 5.30251 22.19C7.14001 20.23 11.725 19.2325 14.2975 19.2325C15.225 19.2325 16.3975 19.3725 17.6225 19.6175C14.7525 21.14 14.2975 23.1525 14.2975 24.3075ZM18.48 31.5C18.0075 31.5 17.5525 31.4825 17.0975 31.43V24.3075C17.0975 21.8225 22.2425 20.58 24.7975 20.58C26.67 20.58 29.9075 21.2625 31.5175 22.5925C29.47 27.79 24.4125 31.5 18.48 31.5V31.5Z" fill="#000000"/>
</svg>
