<svg width="35" height="35" viewBox="0 0 35 35" fill="none" xmlns="http://www.w3.org/2000/svg">
<path d="M30.625 11.6667H28.4375V8.33333C28.4375 3.73333 23.5375 0 17.5 0C11.4625 0 6.5625 3.73333 6.5625 8.33333V11.6667H4.375C1.96875 11.6667 0 13.1667 0 15V31.6667C0 33.5 1.96875 35 4.375 35H30.625C33.0313 35 35 33.5 35 31.6667V15C35 13.1667 33.0313 11.6667 30.625 11.6667ZM17.5 26.6667C15.0937 26.6667 13.125 25.1667 13.125 23.3333C13.125 21.5 15.0937 20 17.5 20C19.9063 20 21.875 21.5 21.875 23.3333C21.875 25.1667 19.9063 26.6667 17.5 26.6667ZM24.2813 11.6667H10.7187V8.33333C10.7187 5.48333 13.7594 3.16667 17.5 3.16667C21.2406 3.16667 24.2813 5.48333 24.2813 8.33333V11.6667Z" fill="#5686E1"/>
</svg>
