<svg width="27" height="27" viewBox="0 0 27 27" fill="none" xmlns="http://www.w3.org/2000/svg">
<path d="M24.875 22.25V23.7083C24.875 25.3125 23.6375 26.625 22.125 26.625H2.875C1.34875 26.625 0.125 25.3125 0.125 23.7083V3.29167C0.125 1.6875 1.34875 0.375 2.875 0.375H22.125C23.6375 0.375 24.875 1.6875 24.875 3.29167V4.75H12.5C10.9737 4.75 9.75 6.0625 9.75 7.66667V19.3333C9.75 20.9375 10.9737 22.25 12.5 22.25H24.875ZM12.5 19.3333H26.25V7.66667H12.5V19.3333ZM18 15.6875C16.8588 15.6875 15.9375 14.7104 15.9375 13.5C15.9375 12.2896 16.8588 11.3125 18 11.3125C19.1412 11.3125 20.0625 12.2896 20.0625 13.5C20.0625 14.7104 19.1412 15.6875 18 15.6875Z" fill="#5686E1"/>
</svg>
